<?xml version="1.0" encoding="utf-8"?>
<!-- Generator: Adobe Illustrator 23.0.1, SVG Export Plug-In . SVG Version: 6.00 Build 0)  -->
<svg version="1.1" id="Layer_1" xmlns="http://www.w3.org/2000/svg" xmlns:xlink="http://www.w3.org/1999/xlink" x="0px" y="0px"
	 viewBox="0 0 209.5 19.6" style="enable-background:new 0 0 209.5 19.6;" xml:space="preserve">
<style type="text/css">
	.st0{fill:#918F90;}
	.st1{enable-background:new    ;}
</style>
<title>Artboard 1</title>
<path class="st0" d="M11.3,14.3c0,3.4-2.8,5.2-6.8,5.2c-1.5,0-3-0.1-4.5-0.3v-16c1.6-0.2,3.2-0.3,4.8-0.3c3.9,0,6,1.7,6,4.1
	c-0.1,1.7-1.2,3.1-2.9,3.6v0.1C10.1,11.2,11.2,12.4,11.3,14.3 M4.8,9.7c1.6,0,2.4-0.7,2.4-2.1S6.6,5.4,4.9,5.4c-0.6,0-1.1,0-1.7,0.1
	v4.2H4.8z M3.2,12.2v4.6c0.6,0.1,1.2,0.1,1.8,0.1c1.7,0,2.7-0.8,2.7-2.3s-0.9-2.4-2.8-2.4H3.2z"/>
<path class="st0" d="M41.5,16.2L41.5,16.2c0.3-1.8,0.6-3.7,1.1-5.5l2.1-7.8h-6.1l2,7.8C41,12.6,41.4,14.4,41.5,16.2z"/>
<polygon class="st0" points="22.6,5.5 22.6,19.3 30.7,19.3 26.5,5.5 "/>
<path class="st0" d="M32.3,16.2L32.3,16.2c0.3-1.8,0.6-3.7,1.1-5.5l2-7.8h-6.2l2.1,7.8C31.8,12.5,32.1,14.4,32.3,16.2z"/>
<polygon class="st0" points="43.1,19.3 47,19.3 47,6.1 "/>
<path class="st0" d="M36.9,6.2L36.9,6.2c-0.2,1.8-0.5,3.6-1,5.3l-2,7.8h5.8l-2-7.8C37.3,9.8,37,8,36.9,6.2z"/>
<rect x="14.7" y="5.5" class="st0" width="4.7" height="13.8"/>
<path class="st0" d="M57.1,2.7c1.3,0,2.6,0.2,3.9,0.6l-0.3,2.6c-1.1-0.4-2.2-0.6-3.4-0.6c-1.6,0-2.7,0.6-2.7,1.9s1,1.9,2.5,2.4
	c2.7,0.8,4.4,1.9,4.4,4.8c0,3.5-3.1,5.3-6.7,5.3c-1.5,0-2.9-0.2-4.3-0.6l0.3-2.6c1.3,0.4,2.8,0.7,4.2,0.7c1.8,0,3.1-0.8,3.1-2.2
	s-0.9-2-2.5-2.4c-2.5-0.7-4.5-1.9-4.5-4.9C51.2,4.2,54,2.7,57.1,2.7"/>
<polygon class="st0" points="71.7,16.8 71.7,19.4 61.9,19.4 61.9,2.9 71.4,2.9 71.4,5.5 65.1,5.5 65.1,9.6 70.6,9.6 70.6,12.2 
	65.1,12.2 65.1,16.8 "/>
<rect x="47.1" class="st0" width="3.1" height="3.1"/>
<rect x="11.4" class="st0" width="3.1" height="3.1"/>
<path class="st0" d="M79.7,3.2h1.5v15.6h-1.5V3.2z"/>
<path class="st0" d="M85.4,3.2h1.9l9.5,13.7l0,0V3.2h1.5v15.6h-1.8L86.9,5.1l0,0v13.7h-1.5V3.2z"/>
<path class="st0" d="M102.4,3.2h4.8c1.2,0,2.3,0.1,3.4,0.5c0.8,0.3,1.6,0.7,2.3,1.3c0.6,0.5,1.1,1.1,1.5,1.7
	c0.3,0.6,0.6,1.2,0.8,1.8c0.1,0.5,0.3,1,0.3,1.6c0,0.5,0.1,0.8,0.1,1c0,0.2,0,0.5-0.1,1c-0.1,0.5-0.2,1-0.3,1.6
	c-0.2,0.6-0.5,1.2-0.8,1.8c-0.4,0.6-0.9,1.2-1.5,1.7c-0.7,0.6-1.5,1-2.3,1.3c-1.1,0.4-2.3,0.5-3.4,0.5h-4.8V3.2z M103.9,17.5h3
	c1,0,2-0.1,2.9-0.4c0.9-0.2,1.6-0.6,2.3-1.2c0.7-0.5,1.2-1.2,1.6-2c0.4-0.9,0.6-1.9,0.6-2.9c0-1-0.2-2-0.6-2.9
	c-0.4-0.8-0.9-1.5-1.6-2c-0.7-0.5-1.5-1-2.3-1.2c-0.9-0.3-1.9-0.4-2.9-0.4h-3V17.5z"/>
<path class="st0" d="M130.1,12.8c0,0.8-0.1,1.6-0.3,2.4c-0.2,0.7-0.5,1.4-1,2c-0.5,0.6-1.1,1.1-1.8,1.4c-1.7,0.7-3.6,0.7-5.4,0
	c-0.7-0.3-1.3-0.8-1.8-1.4c-0.5-0.6-0.8-1.3-1-2c-0.2-0.8-0.3-1.6-0.3-2.4V3.2h1.4v9.3c0,0.6,0.1,1.2,0.2,1.8
	c0.1,0.6,0.3,1.2,0.6,1.8c0.3,0.5,0.7,1,1.3,1.3c1.4,0.7,3,0.7,4.4,0c0.6-0.3,1-0.8,1.4-1.4c0.3-0.6,0.5-1.2,0.6-1.8
	c0.1-0.6,0.1-1.2,0.1-1.8V3.2h1.5V12.8z"/>
<path class="st0" d="M134.5,15.9c0.3,0.6,0.9,1.1,1.5,1.5c0.6,0.3,1.4,0.5,2.1,0.5c0.5,0,0.9-0.1,1.4-0.2c0.4-0.1,0.8-0.3,1.1-0.6
	c0.3-0.3,0.6-0.6,0.8-1c0.2-0.4,0.3-0.8,0.3-1.3c0-0.5-0.1-0.9-0.4-1.4c-0.2-0.4-0.5-0.7-0.9-0.9c-0.4-0.2-0.8-0.4-1.3-0.6
	c-0.5-0.2-1-0.3-1.5-0.5s-1-0.4-1.5-0.6c-0.5-0.2-0.9-0.5-1.3-0.8c-0.4-0.3-0.7-0.8-0.9-1.2c-0.2-0.6-0.4-1.2-0.3-1.9
	c0-1.2,0.5-2.4,1.5-3.2c0.5-0.4,1-0.6,1.6-0.8c0.6-0.2,1.3-0.3,1.9-0.3c0.8,0,1.6,0.1,2.4,0.5c0.8,0.3,1.4,0.8,1.9,1.5l-1.3,0.9
	c-0.7-1-1.8-1.6-3.1-1.6c-0.5,0-0.9,0.1-1.4,0.2c-0.4,0.1-0.8,0.3-1.1,0.6c-0.3,0.2-0.6,0.6-0.8,0.9C135.1,6.1,135,6.6,135,7
	c0,0.7,0.2,1.3,0.6,1.8c0.4,0.4,0.9,0.8,1.5,1c0.6,0.3,1.3,0.5,1.9,0.6c0.7,0.2,1.3,0.4,1.9,0.7c0.6,0.3,1.1,0.8,1.5,1.3
	c0.4,0.7,0.6,1.5,0.6,2.3c0,0.6-0.1,1.3-0.4,1.9c-0.3,0.5-0.6,1-1.1,1.4c-0.5,0.4-1,0.7-1.6,0.9c-0.6,0.2-1.2,0.3-1.8,0.3
	c-1,0-1.9-0.2-2.9-0.5c-0.9-0.4-1.7-1-2.2-1.8L134.5,15.9z"/>
<path class="st0" d="M149.9,4.5h-5.4V3.2h12.2v1.3h-5.4v14.3h-1.5L149.9,4.5z"/>
<path class="st0" d="M159.1,3.2h4.1h0.8c0.4,0,0.8,0.1,1.1,0.1c0.4,0.1,0.9,0.2,1.3,0.3c0.4,0.2,0.8,0.4,1.1,0.7
	c0.3,0.3,0.6,0.7,0.8,1.2c0.2,0.5,0.3,1.1,0.3,1.7c0,0.6-0.1,1.3-0.4,1.9c-0.2,0.5-0.6,0.9-1,1.2c-0.4,0.3-0.8,0.5-1.3,0.7
	c-0.4,0.1-0.9,0.2-1.4,0.3l4.6,7.5h-1.7l-4.4-7.4h-2.7v7.4H159L159.1,3.2z M160.5,10.1h3.1c0.6,0,1.3-0.1,1.9-0.3
	c0.4-0.1,0.8-0.4,1.1-0.7c0.3-0.3,0.4-0.6,0.6-0.9c0.1-0.3,0.1-0.6,0.1-0.9c0-0.3-0.1-0.6-0.1-0.9c-0.1-0.3-0.3-0.7-0.6-0.9
	c-0.3-0.3-0.7-0.5-1.1-0.7c-0.6-0.2-1.2-0.3-1.9-0.3h-3.1V10.1z"/>
<path class="st0" d="M172.2,3.2h1.5v15.6h-1.5V3.2z"/>
<path class="st0" d="M177.9,3.2h9.6v1.3h-8.1v5.6h7.6v1.3h-7.6v6.1h8.5v1.3h-9.9L177.9,3.2z"/>
<path class="st0" d="M191.4,15.9c0.3,0.6,0.9,1.1,1.5,1.5c0.6,0.3,1.4,0.5,2.1,0.5c0.5,0,0.9-0.1,1.4-0.2c0.4-0.1,0.8-0.3,1.1-0.6
	c0.3-0.3,0.6-0.6,0.8-1c0.2-0.4,0.3-0.8,0.3-1.3c0-0.5-0.1-0.9-0.3-1.4c-0.2-0.4-0.6-0.7-0.9-0.9c-0.4-0.2-0.8-0.4-1.3-0.6
	c-0.5-0.2-1-0.3-1.5-0.5s-1-0.4-1.5-0.6c-0.5-0.2-0.9-0.5-1.3-0.8c-0.4-0.3-0.7-0.8-0.9-1.2c-0.2-0.6-0.4-1.2-0.4-1.9
	c0-0.6,0.1-1.3,0.4-1.8c0.3-0.5,0.6-1,1.1-1.3c0.5-0.4,1-0.6,1.6-0.8c0.6-0.2,1.3-0.3,1.9-0.3c0.8,0,1.6,0.1,2.4,0.5
	c0.8,0.3,1.4,0.8,1.9,1.5l-1.3,0.9c-0.3-0.5-0.8-0.9-1.3-1.2c-0.5-0.3-1.1-0.4-1.8-0.4c-0.5,0-0.9,0.1-1.4,0.2
	c-0.4,0.1-0.8,0.3-1.1,0.6c-0.3,0.2-0.6,0.6-0.8,0.9c-0.2,0.4-0.3,0.8-0.3,1.3c0,0.7,0.2,1.3,0.6,1.8c0.4,0.4,0.9,0.8,1.5,1
	c0.6,0.3,1.3,0.5,1.9,0.6c0.7,0.2,1.3,0.4,1.9,0.7c0.6,0.3,1.1,0.7,1.5,1.3c0.4,0.7,0.6,1.5,0.6,2.3c0,0.6-0.1,1.3-0.4,1.9
	c-0.3,0.5-0.6,1-1.1,1.4c-0.5,0.4-1,0.7-1.6,0.9c-0.6,0.2-1.2,0.3-1.8,0.3c-1,0-1.9-0.2-2.9-0.5c-0.9-0.4-1.7-1-2.2-1.8L191.4,15.9z
	"/>
<g class="st1">
	<path class="st0" d="M203.2,5.2V1.8h-1.3V1.4h3.1v0.5h-1.3v3.4H203.2z"/>
	<path class="st0" d="M205.5,5.2V1.4h0.8l0.9,2.8c0.1,0.3,0.1,0.4,0.2,0.6c0-0.1,0.1-0.3,0.2-0.6l0.9-2.7h0.7v3.9h-0.5V2l-1.1,3.3
		h-0.5L206,1.9v3.3H205.5z"/>
</g>
</svg>
